<svg toInject style="background-color:hsl(0 0% 97%)" xmlns="http://www.w3.org/2000/svg" viewBox="0 0 448.49 134.05"><defs><style>.cls-1{fill:none;}</style></defs><title>logo</title><path fill="hsl(0 0% 15%)" d="M277.6,163.41a1.06,1.06,0,0,1-1.25-1.28v-35.4a1.41,1.41,0,0,1,.24-.87.83.83,0,0,1,.68-.3H285c.57,0,.86.35.86,1.07v12.7c0,.2.05.33.17.38s.26,0,.45-.18a13.54,13.54,0,0,1,3.82-2.83,9.22,9.22,0,0,1,3.86-.84,7,7,0,0,1,5.52,2.19,9,9,0,0,1,2,6.23v17.6q0,1.53-1.44,1.53h-7.05a1.13,1.13,0,0,1-.87-.28,1.57,1.57,0,0,1-.24-1V145.5a2.37,2.37,0,0,0-.67-1.78,2.46,2.46,0,0,0-1.82-.67,3.38,3.38,0,0,0-2,.64A5.46,5.46,0,0,0,286,145.6v16.33a1.5,1.5,0,0,1-.36,1.14,1.78,1.78,0,0,1-1.22.34Z" transform="translate(-75.3 -82.98)"/><path fill="hsl(0 0% 15%)" d="M315.35,156.11a2.28,2.28,0,0,0,1.71.66,3.71,3.71,0,0,0,2-.58,5.76,5.76,0,0,0,1.64-1.51V137.85a1.45,1.45,0,0,1,.38-1.12,1.72,1.72,0,0,1,1.2-.36h6.86a1.24,1.24,0,0,1,1,.31,1.41,1.41,0,0,1,.29,1l-.19,24.58c0,.75-.3,1.13-.91,1.13h-7.58c-.58,0-.87-.34-.87-1v-2.24c0-.2-.06-.33-.17-.38s-.25,0-.41.18a10.82,10.82,0,0,1-3.57,3,9.8,9.8,0,0,1-4.39,1,6.53,6.53,0,0,1-5.16-2.27,9.16,9.16,0,0,1-2-6.25V137.9a1.34,1.34,0,0,1,1.49-1.53h7a1,1,0,0,1,.86.31,1.65,1.65,0,0,1,.25,1v16.57A2.51,2.51,0,0,0,315.35,156.11Z" transform="translate(-75.3 -82.98)"/><path fill="hsl(0 0% 15%)" d="M343.55,125.84a1.17,1.17,0,0,1,.24.79v6a1.45,1.45,0,0,1-.38,1.12,1.72,1.72,0,0,1-1.2.36h-6.77a1.18,1.18,0,0,1-1-.34,1.48,1.48,0,0,1-.29-1v-6.07a1.41,1.41,0,0,1,.24-.87.82.82,0,0,1,.67-.3h7.83A.77.77,0,0,1,343.55,125.84Zm0,10.81a1.1,1.1,0,0,1,.24.74v24.54a1.42,1.42,0,0,1-.38,1.14,1.83,1.83,0,0,1-1.2.34h-6.77a1.26,1.26,0,0,1-1-.31,1.44,1.44,0,0,1-.27-1V137.54a1.35,1.35,0,0,1,.24-.86.8.8,0,0,1,.67-.31h7.83A.77.77,0,0,1,343.55,136.65Z" transform="translate(-75.3 -82.98)"/><path fill="hsl(0 0% 15%)" d="M366.38,143a1.25,1.25,0,0,1-.89.31H361c-.41,0-.62.22-.62.66v9.79a2.45,2.45,0,0,0,.82,2,3.94,3.94,0,0,0,2.54.67h2.06a.77.77,0,0,1,.63.3,1.16,1.16,0,0,1,.24.72l-.05,4.08c0,.81-.46,1.32-1.39,1.53a46.42,46.42,0,0,1-6.48.36,8.87,8.87,0,0,1-5.76-1.79,6.08,6.08,0,0,1-2.21-5V144.18a1.4,1.4,0,0,0-.14-.72.7.7,0,0,0-.58-.2h-2.3a1,1,0,0,1-1.16-1.13v-4.79c0-.65.36-1,1.06-1h2.83c.35,0,.55-.2.58-.61l.77-7.55c.06-.68.35-1,.86-1h7.06a.79.79,0,0,1,.64.31,1.17,1.17,0,0,1,.27.81v7.45c0,.37.17.56.53.56h4.41c.71,0,1.06.32,1.06,1v4.84A1.11,1.11,0,0,1,366.38,143Z" transform="translate(-75.3 -82.98)"/><path fill="hsl(0 0% 15%)" d="M389.06,136.68a.92.92,0,0,1,.72-.31h4a1.29,1.29,0,0,1,1,.33,1.51,1.51,0,0,1,.29,1v33a1.28,1.28,0,0,1-.24.84.84.84,0,0,1-.68.28h-7.82c-.58,0-.86-.34-.86-1V162c0-.48-.08-.75-.22-.82s-.36,0-.65.26a11.92,11.92,0,0,1-2.9,1.83,7.6,7.6,0,0,1-3.05.67,9.06,9.06,0,0,1-5.38-1.61,10.18,10.18,0,0,1-3.48-4.75,21.13,21.13,0,0,1-1.22-7.62,19.47,19.47,0,0,1,1.3-7.42,11.09,11.09,0,0,1,3.69-5,9.35,9.35,0,0,1,5.67-1.76,9,9,0,0,1,3.14.54,9.58,9.58,0,0,1,2.66,1.47,11.41,11.41,0,0,1,2.16,2.27c.29.35.5.29.63-.15l.77-2.34A2.14,2.14,0,0,1,389.06,136.68Zm-5.21,20.68a6.05,6.05,0,0,0,1.61-1.25V145.86a5.68,5.68,0,0,0-.41-2.2,3.3,3.3,0,0,0-1.15-1.47,3,3,0,0,0-1.76-.51,2.85,2.85,0,0,0-2.06.84,5.62,5.62,0,0,0-1.34,2.65,19,19,0,0,0-.48,4.72,19.84,19.84,0,0,0,.43,4.64,5,5,0,0,0,1.25,2.5,2.81,2.81,0,0,0,2,.76A4.06,4.06,0,0,0,383.85,157.36Z" transform="translate(-75.3 -82.98)"/><path fill="hsl(0 0% 15%)" d="M409,156.11a2.27,2.27,0,0,0,1.7.66,3.72,3.72,0,0,0,2-.58,5.72,5.72,0,0,0,1.63-1.51V137.85a1.45,1.45,0,0,1,.39-1.12,1.69,1.69,0,0,1,1.2-.36h6.86a1.24,1.24,0,0,1,1,.31,1.46,1.46,0,0,1,.29,1l-.19,24.58c0,.75-.31,1.13-.91,1.13h-7.59c-.57,0-.86-.34-.86-1v-2.24c0-.2-.06-.33-.17-.38s-.25,0-.41.18a10.85,10.85,0,0,1-3.58,3,9.74,9.74,0,0,1-4.39,1,6.56,6.56,0,0,1-5.16-2.27,9.21,9.21,0,0,1-2-6.25V137.9a1.34,1.34,0,0,1,1.49-1.53h7a1,1,0,0,1,.86.31,1.66,1.66,0,0,1,.24,1v16.57A2.52,2.52,0,0,0,409,156.11Z" transform="translate(-75.3 -82.98)"/><path fill="hsl(0 0% 15%)" d="M441.81,160.75a1.83,1.83,0,0,0-.91.51,10.15,10.15,0,0,1-7,2.66,7.56,7.56,0,0,1-5.6-2.1,7.26,7.26,0,0,1-2.09-5.35,8.24,8.24,0,0,1,1.8-5.23,11.55,11.55,0,0,1,5.14-3.52,22.27,22.27,0,0,1,7.8-1.25h.34a.63.63,0,0,0,.72-.71v-.87a3.16,3.16,0,0,0-.7-2.19,2.75,2.75,0,0,0-2.14-.77,4.46,4.46,0,0,0-2.16.56,3.87,3.87,0,0,0-1.58,1.84,1,1,0,0,1-.43.56,1.74,1.74,0,0,1-.87,0l-6.28-1.33a.64.64,0,0,1-.53-.43,2.35,2.35,0,0,1,.19-1.2,7.58,7.58,0,0,1,4.13-4.62,18.86,18.86,0,0,1,8-1.45q6.28,0,8.9,2.19a7.7,7.7,0,0,1,2.62,6.23V162a2,2,0,0,1-.22,1.07,1,1,0,0,1-.89.31h-6.57a.9.9,0,0,1-.84-.46,3.87,3.87,0,0,1-.41-1.33l-.05-.36C442.13,160.92,442,160.75,441.81,160.75Zm.24-8.77a1.26,1.26,0,0,0-.15-.69.62.62,0,0,0-.57-.23h-.2a7.7,7.7,0,0,0-4.55,1.81,2.84,2.84,0,0,0-1,2.22,2.28,2.28,0,0,0,.72,1.74,2.86,2.86,0,0,0,2,.66,3.78,3.78,0,0,0,1.52-.28,4.6,4.6,0,0,0,1.12-.69,4.68,4.68,0,0,0,.82-.89,1.71,1.71,0,0,0,.29-.95Z" transform="translate(-75.3 -82.98)"/><path fill="hsl(0 0% 15%)" d="M473.51,143a1.23,1.23,0,0,1-.89.31h-4.46c-.42,0-.62.22-.62.66v9.79a2.48,2.48,0,0,0,.81,2,4,4,0,0,0,2.55.67H473a.76.76,0,0,1,.62.3,1.16,1.16,0,0,1,.24.72l0,4.08c0,.81-.47,1.32-1.4,1.53a46.42,46.42,0,0,1-6.48.36,8.91,8.91,0,0,1-5.76-1.79,6.07,6.07,0,0,1-2.2-5V144.18a1.29,1.29,0,0,0-.15-.72.67.67,0,0,0-.57-.2h-2.31a1,1,0,0,1-1.15-1.13v-4.79c0-.65.35-1,1.06-1h2.83c.35,0,.54-.2.57-.61l.77-7.55c.07-.68.35-1,.87-1h7.05a.81.81,0,0,1,.65.31,1.16,1.16,0,0,1,.26.81v7.45c0,.37.18.56.53.56h4.42c.7,0,1.05.32,1.05,1v4.84A1.07,1.07,0,0,1,473.51,143Z" transform="translate(-75.3 -82.98)"/><path fill="hsl(0 0% 15%)" d="M478.29,163.41a1.3,1.3,0,0,1-1-.31,1.5,1.5,0,0,1-.26-1V137.54c0-.78.3-1.17.91-1.17h7.49a.76.76,0,0,1,.62.28,1.1,1.1,0,0,1,.24.74v2.86c0,.27.1.42.29.46a.55.55,0,0,0,.53-.31,10,10,0,0,1,3.21-3.21,7.09,7.09,0,0,1,3.75-1.33c1.18,0,1.78.34,1.78,1v7.75a.86.86,0,0,1-.27.72.79.79,0,0,1-.69.1,19.26,19.26,0,0,0-2.16-.41,15.71,15.71,0,0,0-2-.15,4.27,4.27,0,0,0-2,.48,4.44,4.44,0,0,0-1.54,1.3,2.84,2.84,0,0,0-.6,1.69v13.57a1.43,1.43,0,0,1-.39,1.14,1.78,1.78,0,0,1-1.19.34Z" transform="translate(-75.3 -82.98)"/><path fill="hsl(0 0% 15%)" d="M507.28,152.59a4.69,4.69,0,0,0,.65,2.55,4,4,0,0,0,1.75,1.53,6,6,0,0,0,2.54.51,5.2,5.2,0,0,0,2.5-.64,11.83,11.83,0,0,0,2.74-2.21.58.58,0,0,1,.38-.23,1.3,1.3,0,0,1,.62.17l4.37,1.89a.68.68,0,0,1,.46.49.91.91,0,0,1-.27.74,12.64,12.64,0,0,1-12.09,6.53,13.81,13.81,0,0,1-6.89-1.74,12.53,12.53,0,0,1-4.87-4.82,13.74,13.74,0,0,1-1.78-7,15.34,15.34,0,0,1,1.82-7.53,13.41,13.41,0,0,1,4.9-5.12,12.65,12.65,0,0,1,6.62-1.84,13.05,13.05,0,0,1,6.75,1.74,11.93,11.93,0,0,1,4.63,5,17,17,0,0,1,1.68,7.83,2.31,2.31,0,0,1-.14,1q-.15.26-.72.3H508Q507.28,151.72,507.28,152.59Zm2-10.25a3.52,3.52,0,0,0-1.36,1.53,5.68,5.68,0,0,0-.51,2.55l6.24.05a1.11,1.11,0,0,0,.65-.13c.11-.08.17-.28.17-.58a4.72,4.72,0,0,0-.36-1.69,4.06,4.06,0,0,0-1.11-1.58,2.66,2.66,0,0,0-1.84-.66A3.66,3.66,0,0,0,509.29,142.34Z" transform="translate(-75.3 -82.98)"/><rect fill="hsl(0 0% 35%)" x="33.51" width="67.02" height="53.62" rx="5"/><rect fill="hsl(0 0% 35%)" x="100.53" y="80.43" width="67.02" height="53.62" rx="5"/><rect fill="hsl(0 0% 55%)" x="134.05" width="33.51" height="53.62" rx="5"/><rect fill="hsl(0 0% 15%)" x="33.51" y="80.43" width="33.51" height="53.62" rx="5"/><polygon class="cls-1" points="33.51 53.62 33.51 0 0 0 0 134.05 33.51 134.05 33.51 80.43 67.02 80.43 67.02 134.05 100.53 134.05 100.53 80.43 100.53 53.62 33.51 53.62"/><polygon class="cls-1" points="167.56 80.43 167.56 134.05 201.07 134.05 201.07 0 167.56 0 167.56 53.62 134.05 53.62 134.05 0 100.53 0 100.53 53.62 100.53 80.43 167.56 80.43"/></svg>